{
    "asset" : {
        "generator" : "Khronos glTF Blender I/O v0.9.36",
        "version" : "2.0"
    },
    "scene" : 0,
    "scenes" : [
        {
            "name" : "Scene",
            "nodes" : [
                0
            ]
        }
    ],
    "nodes" : [
        {
            "mesh" : 0,
            "name" : "Cube"
        }
    ],
    "meshes" : [
        {
            "name" : "Cube.001",
            "primitives" : [
                {
                    "attributes" : {
                        "POSITION" : 0,
                        "NORMAL" : 1,
                        "TEXCOORD_0" : 2
                    },
                    "indices" : 3
                }
            ]
        }
    ],
    "accessors" : [
        {
            "bufferView" : 0,
            "componentType" : 5126,
            "count" : 38,
            "max" : [
                0.4516581892967224,
                0.72416752576828,
                0.9132786393165588
            ],
            "min" : [
                -0.4516581594944,
                -0.72416752576828,
                0
            ],
            "type" : "VEC3"
        },
        {
            "bufferView" : 1,
            "componentType" : 5126,
            "count" : 38,
            "type" : "VEC3"
        },
        {
            "bufferView" : 2,
            "componentType" : 5126,
            "count" : 38,
            "type" : "VEC2"
        },
        {
            "bufferView" : 3,
            "componentType" : 5123,
            "count" : 60,
            "type" : "SCALAR"
        }
    ],
    "bufferViews" : [
        {
            "buffer" : 0,
            "byteLength" : 456,
            "byteOffset" : 0
        },
        {
            "buffer" : 0,
            "byteLength" : 456,
            "byteOffset" : 456
        },
        {
            "buffer" : 0,
            "byteLength" : 304,
            "byteOffset" : 912
        },
        {
            "buffer" : 0,
            "byteLength" : 120,
            "byteOffset" : 1216
        }
    ],
    "buffers" : [
        {
            "byteLength" : 1336,
            "uri" : "data:application/octet-stream;base64,"
        }
    ]
}
